<svg width="190" height="24" viewBox="0 0 190 24" fill="none" xmlns="http://www.w3.org/2000/svg">
<g clip-path="url(#clip0_1_1032)">
<path d="M12.5854 20.0488L18.5854 23.7073C19.7561 24.439 21.0732 23.4146 20.7805 22.0976L19.1708 15.2195L24.5854 10.5366C25.6098 9.65854 25.0244 8.04878 23.7073 7.90244L16.683 7.31707L13.9025 0.878049C13.3171 -0.292683 11.7073 -0.292683 11.122 0.878049L8.34149 7.46341L1.3171 8.04878C2.73548e-05 8.04878 -0.438997 9.65854 0.439052 10.5366L5.85369 15.2195L4.24393 22.0976C3.95125 23.4146 5.26832 24.2927 6.43905 23.7073L12.5854 20.0488Z" fill="#FFBB0C"/>
</g>
<g clip-path="url(#clip1_1_1032)">
<path d="M53.5854 20.0488L59.5854 23.7073C60.7561 24.439 62.0732 23.4146 61.7805 22.0976L60.1708 15.2195L65.5854 10.5366C66.6098 9.65854 66.0244 8.04878 64.7073 7.90244L57.683 7.31707L54.9025 0.878049C54.3171 -0.292683 52.7073 -0.292683 52.122 0.878049L49.3415 7.46341L42.3171 8.04878C41 8.04878 40.561 9.65854 41.4391 10.5366L46.8537 15.2195L45.2439 22.0976C44.9512 23.4146 46.2683 24.2927 47.4391 23.7073L53.5854 20.0488Z" fill="#FFBB0C"/>
</g>
<g clip-path="url(#clip2_1_1032)">
<path d="M94.5854 20.0488L100.585 23.7073C101.756 24.439 103.073 23.4146 102.78 22.0976L101.171 15.2195L106.585 10.5366C107.61 9.65854 107.024 8.04878 105.707 7.90244L98.6829 7.31707L95.9024 0.878049C95.3171 -0.292683 93.7073 -0.292683 93.1219 0.878049L90.3415 7.46341L83.3171 8.04878C82 8.04878 81.561 9.65854 82.439 10.5366L87.8537 15.2195L86.2439 22.0976C85.9512 23.4146 87.2683 24.2927 88.439 23.7073L94.5854 20.0488Z" fill="#FFBB0C"/>
</g>
<g clip-path="url(#clip3_1_1032)">
<path d="M135.585 20.0488L141.585 23.7073C142.756 24.439 144.073 23.4146 143.78 22.0976L142.171 15.2195L147.585 10.5366C148.61 9.65854 148.024 8.04878 146.707 7.90244L139.683 7.31707L136.902 0.878049C136.317 -0.292683 134.707 -0.292683 134.122 0.878049L131.341 7.46341L124.317 8.04878C123 8.04878 122.561 9.65854 123.439 10.5366L128.854 15.2195L127.244 22.0976C126.951 23.4146 128.268 24.2927 129.439 23.7073L135.585 20.0488Z" fill="#FFBB0C"/>
</g>
<g clip-path="url(#clip4_1_1032)">
<path d="M176.585 20.0488L182.585 23.7073C183.756 24.439 185.073 23.4146 184.78 22.0976L183.171 15.2195L188.585 10.5366C189.61 9.65854 189.024 8.04878 187.707 7.90244L180.683 7.31707L177.902 0.878049C177.317 -0.292683 175.707 -0.292683 175.122 0.878049L172.341 7.46341L165.317 8.04878C164 8.04878 163.561 9.65854 164.439 10.5366L169.854 15.2195L168.244 22.0976C167.951 23.4146 169.268 24.2927 170.439 23.7073L176.585 20.0488Z" fill="#FFBB0C"/>
</g>
<defs>
<clipPath id="clip0_1_1032">
<rect width="25.0244" height="24" fill="white"/>
</clipPath>
<clipPath id="clip1_1_1032">
<rect width="25.0244" height="24" fill="white" transform="translate(41)"/>
</clipPath>
<clipPath id="clip2_1_1032">
<rect width="25.0244" height="24" fill="white" transform="translate(82)"/>
</clipPath>
<clipPath id="clip3_1_1032">
<rect width="25.0244" height="24" fill="white" transform="translate(123)"/>
</clipPath>
<clipPath id="clip4_1_1032">
<rect width="25.0244" height="24" fill="white" transform="translate(164)"/>
</clipPath>
</defs>
</svg>
